<?xml version="1.0" encoding="UTF-8"?>
<svg width="128px" height="128px" viewBox="0 0 128 128" version="1.1" xmlns="http://www.w3.org/2000/svg" xmlns:xlink="http://www.w3.org/1999/xlink">
    <title>Icon</title>
    <g id="Page-1" stroke="none" stroke-width="1" fill="none" fill-rule="evenodd">
        <g id="Icon" transform="translate(4.000000, 4.000000)">
            <path d="M100,8 C111.045695,8 120,16.954305 120,28 L120,43 C120,31.9543 111.046,23 100,23 L100,23 L67.9325,23 C64.4928,23 61.2184,21.5239 58.9406,18.9465 L58.9406,18.9465 L49.267,8 L100,8 Z" id="Combined-Shape" stroke="#C9D0D8" stroke-width="8" fill="#C9D0D8" fill-rule="nonzero"></path>
            <path d="M36.7872,0 C40.2269,0 43.5013,1.47607 45.7791,4.05352 L58.9406,18.9465 C61.2184,21.5239 64.4928,23 67.9325,23 L100,23 C111.046,23 120,31.9543 120,43 L120,100 C120,111.046 111.046,120 100,120 L20,120 C8.9543,120 0,111.046 0,100 L0,20 C0,8.9543 8.9543,0 20,0 L36.7872,0 Z" id="Path" stroke="#C9D0D8" stroke-width="8" fill-rule="nonzero"></path>
            <polyline id="Path" stroke="#DCE0E5" stroke-width="12" stroke-linecap="round" stroke-linejoin="round" points="29 69 49.6667 92 91 46"></polyline>
        </g>
    </g>
</svg>