<svg width="127" height="20" viewBox="0 0 127 20" fill="none" xmlns="http://www.w3.org/2000/svg">
<path fill-rule="evenodd" clip-rule="evenodd" d="M16 0C18.2091 0 20 1.79086 20 4V16C20 18.2091 18.2091 20 16 20H4C1.79086 20 0 18.2091 0 16V4C0 1.79086 1.79086 0 4 0H16ZM14.9148 5.42282L8.267 11.934L5.08522 8.81768L3.33583 10.6036L8.2671 15.434L16.6642 7.20876L14.9148 5.42282Z" fill="#1E293B"/>
<path d="M40.0057 1.54545V19H37.5852L28.7131 6.19886H28.5511V19H25.9176V1.54545H28.3551L37.2358 14.3636H37.3977V1.54545H40.0057ZM43.8473 19V1.54545H54.7905V3.8125H46.4808V9.13068H54.2195V11.3892H46.4808V16.733H54.8928V19H43.8473ZM60.1406 1.54545L64.3168 8.37216H64.4531L68.6293 1.54545H71.6804L66.2429 10.2727L71.7145 19H68.6463L64.4531 12.267H64.3168L60.1236 19H57.0554L62.6207 10.2727L57.0895 1.54545H60.1406ZM73.4318 3.8125V1.54545H86.9403V3.8125H81.4943V19H78.8693V3.8125H73.4318Z" fill="#1E293B"/>
<path d="M89.8409 8.31818V7.36364H98.2784V8.31818H94.5909V19H93.5284V8.31818H89.8409ZM102.587 19.1818C101.833 19.1818 101.166 18.9905 100.587 18.608C100.011 18.2254 99.5601 17.697 99.2344 17.0227C98.9086 16.3447 98.7457 15.5625 98.7457 14.6761C98.7457 13.7822 98.9086 12.9962 99.2344 12.3182C99.5601 11.6364 100.011 11.1061 100.587 10.7273C101.166 10.3447 101.833 10.1534 102.587 10.1534C103.34 10.1534 104.005 10.3447 104.581 10.7273C105.157 11.1098 105.607 11.6402 105.933 12.3182C106.263 12.9962 106.428 13.7822 106.428 14.6761C106.428 15.5625 106.265 16.3447 105.939 17.0227C105.613 17.697 105.161 18.2254 104.581 18.608C104.005 18.9905 103.34 19.1818 102.587 19.1818ZM102.587 18.2557C103.193 18.2557 103.706 18.0928 104.126 17.767C104.547 17.4413 104.865 17.0076 105.081 16.4659C105.301 15.9242 105.411 15.3277 105.411 14.6761C105.411 14.0246 105.301 13.4261 105.081 12.8807C104.865 12.3352 104.547 11.8977 104.126 11.5682C103.706 11.2386 103.193 11.0739 102.587 11.0739C101.984 11.0739 101.471 11.2386 101.047 11.5682C100.626 11.8977 100.306 12.3352 100.087 12.8807C99.8707 13.4261 99.7628 14.0246 99.7628 14.6761C99.7628 15.3277 99.8707 15.9242 100.087 16.4659C100.306 17.0076 100.626 17.4413 101.047 17.767C101.467 18.0928 101.981 18.2557 102.587 18.2557ZM111.79 19.1818C111.074 19.1818 110.447 18.9924 109.909 18.6136C109.371 18.2348 108.951 17.7064 108.648 17.0284C108.348 16.3504 108.199 15.5606 108.199 14.6591C108.199 13.7614 108.348 12.9754 108.648 12.3011C108.951 11.6231 109.373 11.0966 109.915 10.7216C110.456 10.3428 111.087 10.1534 111.807 10.1534C112.337 10.1534 112.778 10.2481 113.131 10.4375C113.483 10.6231 113.765 10.8542 113.977 11.1307C114.189 11.4072 114.354 11.6761 114.472 11.9375H114.562V7.36364H115.58V19H114.591V17.3807H114.472C114.354 17.6458 114.188 17.9186 113.972 18.1989C113.756 18.4754 113.47 18.7083 113.114 18.8977C112.761 19.0871 112.32 19.1818 111.79 19.1818ZM111.909 18.2557C112.473 18.2557 112.955 18.1023 113.352 17.7955C113.75 17.4848 114.053 17.0587 114.261 16.517C114.473 15.9716 114.58 15.3466 114.58 14.642C114.58 13.9451 114.475 13.3295 114.267 12.7955C114.059 12.2576 113.756 11.8371 113.358 11.5341C112.96 11.2273 112.477 11.0739 111.909 11.0739C111.326 11.0739 110.833 11.233 110.432 11.5511C110.034 11.8655 109.731 12.2917 109.523 12.8295C109.318 13.3674 109.216 13.9716 109.216 14.642C109.216 15.3201 109.32 15.9318 109.528 16.4773C109.737 17.0227 110.04 17.4564 110.438 17.7784C110.839 18.0966 111.33 18.2557 111.909 18.2557ZM121.852 19.1818C121.098 19.1818 120.432 18.9905 119.852 18.608C119.277 18.2254 118.826 17.697 118.5 17.0227C118.174 16.3447 118.011 15.5625 118.011 14.6761C118.011 13.7822 118.174 12.9962 118.5 12.3182C118.826 11.6364 119.277 11.1061 119.852 10.7273C120.432 10.3447 121.098 10.1534 121.852 10.1534C122.606 10.1534 123.271 10.3447 123.847 10.7273C124.422 11.1098 124.873 11.6402 125.199 12.3182C125.528 12.9962 125.693 13.7822 125.693 14.6761C125.693 15.5625 125.53 16.3447 125.205 17.0227C124.879 17.697 124.426 18.2254 123.847 18.608C123.271 18.9905 122.606 19.1818 121.852 19.1818ZM121.852 18.2557C122.458 18.2557 122.972 18.0928 123.392 17.767C123.813 17.4413 124.131 17.0076 124.347 16.4659C124.566 15.9242 124.676 15.3277 124.676 14.6761C124.676 14.0246 124.566 13.4261 124.347 12.8807C124.131 12.3352 123.813 11.8977 123.392 11.5682C122.972 11.2386 122.458 11.0739 121.852 11.0739C121.25 11.0739 120.737 11.2386 120.312 11.5682C119.892 11.8977 119.572 12.3352 119.352 12.8807C119.136 13.4261 119.028 14.0246 119.028 14.6761C119.028 15.3277 119.136 15.9242 119.352 16.4659C119.572 17.0076 119.892 17.4413 120.312 17.767C120.733 18.0928 121.246 18.2557 121.852 18.2557Z" fill="#1E293B"/>
</svg>
